<svg width="258" height="63" viewBox="0 0 258 63" fill="none" xmlns="http://www.w3.org/2000/svg">
<path d="M2.73576 49.9005L2.83525 49.6021C4.07877 46.8663 4.72541 43.8818 4.72541 40.8974V15.6289C4.72541 12.5947 4.07877 9.75942 2.83525 6.92417L2.73576 6.62572H30.6405V11.948L30.1929 11.5501C27.9048 9.56045 24.9203 8.36666 21.6871 8.36666H10.1472V28.2134H21.7369C24.3732 28.2134 26.2136 27.4673 28.5017 26.3232L28.8996 26.174V31.9937L28.5017 31.8445C26.2633 30.7004 24.3732 29.9543 21.7866 29.9543H10.1472L10.0975 49.9005H2.73576ZM36.7373 50L36.986 49.5026C38.1301 46.9658 38.727 44.2798 38.727 41.4943V16.9719C38.727 14.1366 38.0803 11.5501 36.986 8.91381L36.8368 8.56563L43.8006 6.52624V41.4943C43.8006 44.23 44.3975 46.9658 45.5415 49.5026L45.7902 50H36.7373ZM116.036 50.0995L103.153 21.2994C102.954 20.9512 102.805 20.603 102.556 20.3045L99.8204 16.1263H110.117L109.968 16.4247C109.52 17.4693 109.221 18.5139 109.221 19.6579C109.221 20.7025 109.47 21.6973 109.868 22.6424L119.269 44.0311L126.034 28.1139L122.95 21.2994C122.751 20.9512 122.602 20.603 122.353 20.3045L119.617 16.1263H129.914L129.765 16.4247C129.317 17.4693 129.018 18.5139 129.018 19.6579C129.018 20.7025 129.267 21.6973 129.665 22.6424L139.066 44.0311L148.467 21.8963C148.865 21.0009 149.064 20.0061 149.064 19.0113C149.064 18.2652 148.965 17.1708 148.766 16.4247L148.666 16.176L152.546 16.1263L138.37 50.0995H135.833L126.929 30.0538L118.573 50.0995H116.036ZM187.335 41.5937C185.892 47.314 179.128 50.0497 173.656 50.0497C163.111 50.0497 155.65 42.6881 155.65 33.088C155.65 23.09 162.017 16.0765 173.208 16.0765C183.853 16.0765 189.225 22.1947 189.225 31.6455C189.225 32.1927 189.225 32.6901 189.175 33.2372V33.4362H161.867C162.315 41.1958 168.234 46.5679 176.74 46.5679C180.62 46.5679 184.947 44.8269 187.186 41.7927L187.335 41.5937ZM161.768 31.3968H183.704C183.753 30.9989 183.753 30.5512 183.753 30.1533C183.753 23.9854 180.719 17.5688 173.208 17.5688C165.349 17.5688 161.818 24.9305 161.768 31.3968ZM194.656 49.9503L194.805 49.6518C196.048 47.0653 196.745 44.429 196.745 41.6435V26.1243C196.745 23.3885 196.098 20.6527 194.805 18.0164L194.705 17.7677L201.968 15.6289V20.3045C204.753 17.1708 209.18 15.4796 213.557 15.4796C215 15.4796 216.492 15.6786 217.885 16.0765L218.034 16.1263V20.8019L217.686 20.603C215.845 19.5584 213.707 19.1107 211.568 19.1107C207.937 19.1107 204.306 20.3543 201.968 22.9408V40.2507C201.968 43.4342 202.614 46.6673 203.908 49.6518L204.057 49.9503H194.656ZM224.754 58.257H225.351C231.569 58.1078 236.642 54.5264 238.831 49.2539L225.799 20.7522C225.55 20.2051 225.053 19.5087 224.505 18.7626C223.958 17.9667 223.411 17.1708 222.963 16.5739L222.765 16.2258H233.061L232.912 16.5242C232.414 17.5688 232.166 18.5636 232.166 19.6579C232.166 20.7025 232.414 21.6973 232.812 22.6424L242.213 44.0311L251.614 21.6475C252.012 20.7522 252.211 19.7574 252.211 18.7626C252.211 18.0164 252.112 17.2703 251.913 16.5242L251.813 16.2755L255.693 16.2258L241.616 49.4031C241.069 50.5969 240.821 51.8404 240.423 53.0342C238.831 57.8591 234.404 61.4405 228.783 61.4405L224.754 58.257Z" fill="#760491"/>
<g clip-path="url(#clip0_120_9142)">
<path d="M93.8242 30.3175C93.8242 28.3244 89.7478 27.2171 85.8378 27.2171C84.6731 27.2171 83.0924 27.4385 81.0958 27.8076C82.7597 26.848 84.0075 26.036 84.9226 25.2978C86.3369 24.0429 87.5016 22.6403 88.1671 21.3854C89.1655 19.54 88.6663 18.5065 88.1671 18.0636C87.9176 17.8421 87.4184 17.5469 86.5865 17.5469C84.9226 17.5469 82.2605 18.8756 80.0143 20.9425C79.1824 21.6807 78.1841 22.788 77.1858 24.3382C77.6017 22.6403 77.8513 21.2378 77.8513 20.1305C77.8513 16.5872 76.6866 13.0439 74.3572 13.0439C72.0279 13.0439 70.8632 16.661 70.8632 20.1305C70.8632 21.164 71.1127 22.5665 71.5287 24.3382C70.4472 22.8618 69.5321 21.7545 68.7002 20.9425C66.3708 18.8756 63.7918 17.5469 62.128 17.5469C61.2961 17.5469 60.8801 17.8421 60.5473 18.0636C59.965 18.5803 59.549 19.54 60.5473 21.3854C61.2129 22.6403 62.2944 24.0429 63.7918 25.2978C64.6237 26.036 65.8716 26.9218 67.6187 27.8076C65.7052 27.4385 64.1246 27.2171 62.8767 27.2171C58.8835 27.2171 54.8903 28.2505 54.8903 30.3175C54.8903 32.3844 58.9667 33.4178 62.8767 33.4178C64.0414 33.4178 65.6221 33.1964 67.6187 32.8273C65.9548 33.7869 64.7069 34.5989 63.7918 35.3371C62.3776 36.592 61.2129 37.9946 60.5473 39.2495C59.549 41.095 60.0482 42.1284 60.5473 42.5713C60.7969 42.7928 61.2961 43.0881 62.128 43.0881C63.7918 43.0881 66.3708 41.7593 68.7002 39.6924C69.5321 38.9542 70.5304 37.8469 71.5287 36.2968C71.1127 37.9946 70.8632 39.3971 70.8632 40.5044C70.8632 44.0477 72.0279 47.591 74.3572 47.591C76.6866 47.591 77.8513 43.9739 77.8513 40.5044C77.8513 39.4709 77.6017 38.0684 77.1858 36.2968C78.2673 37.7731 79.1824 38.8804 80.0143 39.6924C82.3437 41.7593 84.9226 43.0881 86.5865 43.0881C87.4184 43.0881 87.8344 42.7928 88.1671 42.5713C88.7495 42.0546 89.1655 41.095 88.1671 39.2495C87.5016 37.9946 86.4201 36.592 84.9226 35.3371C84.0907 34.5989 82.8428 33.7131 81.0958 32.8273C83.0092 33.1964 84.5899 33.4178 85.8378 33.4178C89.7478 33.4178 93.8242 32.3106 93.8242 30.3175ZM76.1875 33.4917C76.0211 33.5655 75.9379 33.6393 75.8547 33.7131C75.6883 33.7131 75.6051 33.7131 75.4387 33.7131C74.69 33.9346 73.8581 33.9346 73.0262 33.7131C72.8598 33.6393 72.7766 33.7131 72.6102 33.7131C72.527 33.6393 72.4438 33.4917 72.2774 33.4917C71.5287 33.1226 70.9464 32.6058 70.6136 32.0153C70.5304 31.8676 70.4472 31.7938 70.364 31.72C70.364 31.5724 70.364 31.4986 70.364 31.3509C70.2808 30.9818 70.1976 30.6866 70.1976 30.3175C70.1976 29.9484 70.2808 29.5793 70.364 29.284C70.4472 29.1364 70.364 29.0625 70.364 28.9149C70.4472 28.8411 70.6136 28.7673 70.6136 28.6196C71.0295 27.9553 71.6119 27.4385 72.2774 27.1433C72.4438 27.0694 72.527 26.9956 72.6102 26.9218H73.0262C73.7749 26.7004 74.6068 26.7004 75.4387 26.9218H75.6883H75.8547C75.9379 26.9956 76.0211 27.1433 76.1875 27.1433C76.9362 27.5124 77.5185 28.0291 77.8513 28.6196C77.9345 28.7673 78.0177 28.8411 78.1009 28.9149V29.284C78.1841 29.6531 78.2673 29.9484 78.2673 30.3175C78.2673 30.6866 78.1841 31.0556 78.1009 31.3509C78.0177 31.4986 78.1009 31.5724 78.1009 31.72C78.0177 31.7938 77.8513 31.8676 77.8513 32.0153C77.4353 32.6058 76.853 33.1226 76.1875 33.4917Z" fill="#760491"/>
</g>
<defs>
<clipPath id="clip0_120_9142">
<rect width="39.9323" height="35.4329" fill="white" transform="translate(54.3079 12.6016)"/>
</clipPath>
</defs>
</svg>
