<svg width="36" height="21" viewBox="0 0 36 21" fill="none" xmlns="http://www.w3.org/2000/svg">
<path d="M33.0391 6.28125H2.96094C2.35938 6.28125 1.86719 6 1.86719 5.65625C1.86719 5.3125 2.35938 5.03125 2.96094 5.03125H33.0391C33.6406 5.03125 34.1328 5.3125 34.1328 5.65625C34.1328 6 33.6406 6.28125 33.0391 6.28125Z" fill="#760490"/>
<path d="M18.2734 11.2812H2.96094C2.35938 11.2812 1.86719 11 1.86719 10.6562C1.86719 10.3125 2.35938 10.0312 2.96094 10.0312H18.2734C18.875 10.0312 19.3672 10.3125 19.3672 10.6562C19.3672 11 18.875 11.2812 18.2734 11.2812Z" fill="#760490"/>
<path d="M33.0391 16.2812H2.96094C2.35938 16.2812 1.86719 16 1.86719 15.6562C1.86719 15.3125 2.35938 15.0312 2.96094 15.0312H33.0391C33.6406 15.0312 34.1328 15.3125 34.1328 15.6562C34.1328 16 33.6406 16.2812 33.0391 16.2812Z" fill="#760490"/>
</svg>
